PathFileType	4	(X/Y/Z)	C:/Users/beibeiliu/ov580/test_trc/User3\sequence.4_training_dense_right.trc
DataRate	CameraRate	NumFrames	NumMarkers	Units	OrigDataRate	OrigDataStartFrame	OrigNumFrames
120	120	16	19	mm	120	53	209
Frame#	Time	ThumbCMC			ThumbMCP			ThumbIP			ThumbTip			IndexMCP			IndexPIP			IndexTip			MiddleMCP			MiddlePIP			MiddleTip			RingMCP			RingPIP			RingTip			PinkyMCP			PinkyPIP			PinkyTip			BackHand1			BackHand2			BackHand3	
		X0	Y0	Z0	X1	Y1	Z1	X2	Y2	Z2	X3	Y3	Z3	X4	Y4	Z4	X5	Y5	Z5	X6	Y6	Z6	X7	Y7	Z7	X8	Y8	Z8	X9	Y9	Z9	X10	Y10	Z10	X11	Y11	Z11	X12	Y12	Z12	X13	Y13	Z13	X14	Y14	Z14	X15	Y15	Z15	X16	Y16	Z16	X17	Y17	Z17	X18	Y18	Z18	
52	0.433333	149.899	-18.7	32.0585	126.336	-12.4184	14.5874	106.315	-10.1802	-3.75169	91.1972	-1.53115	-16.0627	126.863	-66.933	-29.612	110.389	-70.195	-50.5757	92.7687	-82.8058	-67.0798	136.087	-92.8128	-25.3782	120.582	-100.483	-45.1079	101.397	-118.743	-64.87	139.87	-106.241	-9.3483	128.832	-120.122	-26.1524	112.996	-138.067	-42.429	142.707	-116.105	17.5111	133.694	-134.356	7.29458	122.873	-152.53	-2.45829	170.772	-84.2529	25.0632	186.516	-69.3503	48.7662	172.228	-49.3471	23.6315	
53	0.441667	153.694	-14.8792	31.0327	131.685	-4.31085	12.9011	112.31	1.09839	-3.78256	95.402	8.89752	-21.3575	126.64	-59.1573	-27.8052	110.466	-64.9232	-46.9485	91.9442	-72.1518	-63.7864	130.038	-83.1137	-25.1514	112.209	-96.5736	-47.2531	93.0539	-107.932	-64.5029	131.586	-102.852	-8.31387	119.918	-114.163	-24.1844	100.184	-125.208	-44.3128	132.51	-111.026	21.1305	121.33	-128.103	13.3178	109.46	-141.93	-0.462082	166.258	-81.0492	26.8275	182.387	-70.7747	47.3108	172.8	-45.8735	20.0268	
54	0.45	156.846	-13.6404	31.366	137.08	-2.3024	13.8908	117.787	7.59388	-8.54099	104.919	16.882	-19.4682	123.111	-54.2815	-31.4898	105.984	-55.5641	-52.2791	90.7011	-60.0767	-66.4485	124.165	-77.695	-26.9498	105.646	-86.3126	-48.3987	86.9835	-91.6075	-66.9112	123.916	-92.92	-9.80618	111.513	-106.864	-23.4346	93.495	-115.552	-40.9754	122.377	-105.237	18.1594	108.494	-119.239	10.1531	93.288	-136.6	-0.0721735	158.57	-76.4059	23.4734	178.124	-71.0604	48.2428	171.247	-45.4705	17.3227	
55	0.458333	160.044	-10.4318	30.766	141.361	2.26134	9.91488	126.141	15.8351	-7.45054	110.993	24.5319	-24.2275	124.106	-43.0566	-31.3271	106.894	-46.0678	-50.249	92.1101	-48.0887	-66.6379	121.56	-69.5541	-25.9479	103.755	-74.8552	-46.5829	80.3198	-82.4721	-68.6273	120.229	-86.1136	-5.46971	104.221	-93.4946	-28.3248	85.2425	-107.151	-41.0051	117.284	-94.2762	19.7676	100.443	-110.759	12.5485	86.3186	-121.514	0.223384	155.909	-74.1486	23.4546	174.84	-67.9797	48.8066	171.523	-40.1716	17.7831	
56	0.466667	165.217	-6.71433	29.8547	148.338	9.42882	9.58299	133.601	20.237	-10.9026	122.734	32.7052	-25.4527	125.522	-37.6581	-31.3176	112.241	-34.301	-50.1172	94.5763	-36.437	-70.7841	120.97	-61.7075	-25.6136	102.89	-66.6393	-44.0269	79.95	-69.2616	-67.357	117.596	-74.5341	-7.4972	100.149	-87.1914	-24.645	80.2113	-94.5896	-39.1667	112.378	-85.0184	17.5862	95.0759	-99.7091	13.6986	75.7606	-111.164	5.56411	153.85	-69.4357	26.62	173.166	-66.1014	47.5747	171.394	-40.6152	19.751	
57	0.475	170.77	-2.53038	29.7233	156.046	14.1147	5.51027	142.805	28.9247	-16.5362	134.408	37.6746	-26.0092	131.262	-29.2786	-32.1137	115.349	-29.5677	-53.2368	97.5091	-29.5869	-72.5891	119.687	-56.5547	-25.5611	101.574	-58.7125	-48.635	79.577	-61.2396	-67.2955	114.86	-69.8968	-6.15779	98.8276	-77.3142	-24.4925	77.9613	-81.1813	-43.3731	107.511	-80.8099	18.6632	91.6673	-86.765	10.0894	69.8525	-99.9683	1.41189	154.332	-62.7078	23.9683	169.516	-64.045	45.6147	172.738	-38.6444	19.7323	
58	0.483333	174.427	-2.04062	26.2576	165.171	17.0808	7.19014	157.41	33.0654	-15.0416	146.746	43.3051	-30.7941	133.833	-26.6985	-32.5308	121.156	-22.2859	-57.7703	106.42	-22.039	-75.8062	122.089	-50.5918	-25.7365	100.8	-54.9804	-48.9704	80.5648	-52.3643	-73.4396	115.64	-61.3398	-10.2322	94.7724	-71.3866	-25.0914	77.2512	-74.2446	-41.7019	105.899	-72.1832	18.7809	87.3423	-79.1996	11.1233	68.262	-89.6662	3.33578	151.684	-60.9126	26.7849	171.391	-61.5446	49.7897	176.016	-36.8762	20.5059	
59	0.491667	179.335	-3.36286	25.4958	175.402	17.0802	2.8496	163.236	28.6916	-20.2745	160.337	42.8358	-34.1268	140.252	-23.5021	-36.2407	126.632	-22.8693	-57.6253	112.069	-24.6183	-78.5743	121.397	-48.8293	-30.2175	104.223	-50.999	-51.2355	85.2898	-50.4137	-72.2712	113.667	-61.0824	-9.94193	95.5348	-67.8558	-25.9927	75.4015	-71.1362	-41.1218	105.956	-66.3437	19.3562	86.1301	-72.5979	12.6139	66.9537	-77.2332	2.70103	149.212	-58.7998	21.5177	170.37	-61.0816	48.5378	177.904	-39.1539	20.0602	
60	0.5	187.872	-3.42488	23.78	179.419	10.6751	0.749553	176.538	26.7249	-23.6996	174.372	40.9901	-40.7769	143.531	-29.13	-40.2776	133.227	-24.5928	-64.9946	122.644	-25.3192	-86.6061	128.599	-48.5057	-30.4668	111.766	-48.8314	-53.463	85.6999	-53.072	-77.8422	113.729	-61.7657	-13.4521	97.7946	-65.7667	-27.8447	76.4844	-69.7426	-45.3457	105.735	-64.0679	18.5953	85.4949	-67.5516	5.26711	66.1576	-75.059	3.32614	151.134	-61.5336	22.3	169.703	-62.5062	47.0425	178.682	-41.5662	15.7576	
61	0.508333	190.98	-8.56241	18.4846	190.976	9.29901	-2.23263	187.272	22.7298	-29.0466	181.923	31.9089	-44.8919	153.802	-32.5096	-39.5429	140.79	-33.7635	-66.2052	134.485	-31.1482	-87.4292	132.117	-54.3755	-30.184	117.964	-54.9853	-58.3712	98.1572	-55.5047	-81.9456	121.64	-61.6871	-16.3004	106.407	-67.8941	-31.091	84.4935	-72.6849	-48.0205	108.817	-65.3405	10.7227	91.0432	-69.111	6.60985	67.2134	-75.799	-6.09853	153.191	-62.7489	20.8739	171.297	-63.9686	45.9505	185.27	-42.4995	14.6586	
62	0.516667	199.132	-13.6502	16.7798	196.193	0.988886	-6.17556	194.991	13.0031	-35.841	195.052	23.5736	-51.1114	160.366	-42.2973	-41.2048	152.126	-43.0878	-65.5313	146.559	-42.9229	-92.7205	139.578	-63.6866	-38.077	128.205	-63.4923	-60.6034	106.404	-67.1372	-86.4151	127.431	-68.9509	-15.3355	112.558	-74.8403	-38.5553	90.6276	-80.4353	-55.9932	114.822	-70.1738	12.2133	95.2035	-74.1788	-0.248562	74.4162	-78.0003	-11.779	161.471	-66.6707	21.5457	176.23	-68.5585	48.3676	188.153	-48.3296	14.4119	
63	0.525	205.575	-18.9594	13.8581	204.102	-7.29983	-10.3278	206.521	3.28798	-37.4381	207.006	13.6136	-57.9683	170.316	-52.3342	-43.6962	168.653	-52.347	-72.6481	157.129	-58.1981	-94.6393	150.456	-71.2514	-37.2026	140.021	-74.4027	-60.1908	119.36	-81.1899	-89.9901	136.441	-76.5271	-16.8408	121.483	-84.3873	-36.5961	104.022	-89.6658	-55.4514	122.573	-75.8828	8.75406	107.043	-79.2021	-3.39431	85.2045	-86.9698	-13.205	167.642	-74.5497	18.1781	182.801	-70.6391	48.2515	197.084	-52.5318	13.4134	
64	0.533333	214.499	-24.2255	19.3736	215.485	-14.8567	-13.2145	218.086	-5.09786	-36.4818	217.656	0.621684	-59.4691	187.418	-59.5768	-43.9721	182.267	-64.5011	-74.1323	174.241	-71.7636	-94.9486	166.368	-79.1032	-39.8306	152.244	-87.0789	-61.5521	139.712	-91.9119	-90.5818	148.822	-84.8964	-19.5158	132.781	-96.8029	-40.4915	121.053	-100.818	-57.8653	133.246	-82.9106	3.84166	114.7	-89.086	-6.95148	95.4326	-96.3665	-14.9106	175.358	-80.3754	19.1165	189.6	-76.044	48.5379	205.786	-59.3967	17.5878	
65	0.541667	223.009	-28.5642	16.7993	221.335	-21.7855	-10.623	227.273	-14.2299	-37.2696	227.092	-7.71865	-57.6649	199.032	-69.0405	-42.7155	193.045	-78.1427	-70.121	191.012	-84.308	-90.7174	176.634	-92.8408	-38.9072	168.191	-98.3804	-60.7051	157.319	-104.221	-89.3399	162.376	-93.692	-23.358	150.925	-103.926	-41.5829	136.555	-113.167	-62.5888	143.616	-91.663	0.670754	123.827	-98.9393	-9.65378	109.291	-104.62	-20.4375	187.072	-84.8059	22.1641	198.974	-77.0501	49.6877	214.67	-67.5244	17.0089	
66	0.55	230.87	-31.6353	16.2898	229.815	-25.1187	-9.62373	236.51	-19.8518	-40.3862	235.473	-15.023	-59.5491	209.856	-78.2215	-44.2796	211.878	-83.9447	-67.2645	208.896	-95.2064	-93.3394	192.598	-97.6237	-35.7142	184.559	-108.466	-60.7948	171.604	-118.77	-90.6343	174.562	-104.737	-23.0779	164.368	-116.656	-42.2965	153.995	-124.729	-61.1747	156.523	-100.088	1.0194	142.03	-106.86	-9.21535	120.572	-117.335	-21.2944	195.494	-92.7542	20.6825	204.939	-82.1817	48.862	224.41	-68.301	20.399	
67	0.558333	238.103	-31.6598	16.4548	236.634	-27.1882	-10.9037	239.965	-24.4156	-40.2842	243.731	-16.1709	-59.0929	223.171	-82.767	-42.5222	225.735	-89.8926	-68.1147	222.889	-102.324	-90.1485	208.551	-103.113	-39.752	201.301	-115.531	-59.3438	191.988	-127.09	-86.9435	190.418	-108.471	-18.1449	183.885	-121.871	-38.9993	172.629	-134.442	-60.3104	169.062	-107.241	2.82539	155.647	-118.969	-14.5932	139.85	-129.143	-22.7402	209.022	-92.7442	23.3069	215.171	-84.9234	53.0205	235.763	-69.1418	17.9571	
